<svg width="67" height="64" viewBox="0 0 67 64" fill="none" xmlns="http://www.w3.org/2000/svg">
<rect width="67" height="64" fill="#FFCE00"/>
<path d="M24.5 4C13.7477 4 5 12.7477 5 23.5C5 34.2523 13.7477 43 24.5 43C35.2523 43 44 34.2523 44 23.5C44 12.7477 35.2523 4 24.5 4ZM24.5 41.7C14.4647 41.7 6.30003 33.5353 6.30003 23.5C6.30003 13.4647 14.4647 5.30003 24.5 5.30003C34.5353 5.30003 42.7 13.4647 42.7 23.5C42.7 33.5353 34.5353 41.7 24.5 41.7Z" fill="#B57402"/>
<path d="M42.5739 29.3617C39.5865 27.493 37.5 21.875 37.5 15.7C37.5 13.713 37.7048 11.7864 38.1091 9.97415C38.1871 9.62384 37.9661 9.27604 37.6157 9.19804C37.264 9.12133 36.9176 9.34101 36.8396 9.6914C36.4152 11.5965 36.2 13.6181 36.2 15.7C36.2 22.4041 38.4848 28.3373 41.885 30.4635C41.9922 30.5304 42.1112 30.5623 42.2288 30.5623C42.4453 30.5623 42.6571 30.4543 42.7807 30.2574C42.9704 29.9532 42.8781 29.5515 42.5739 29.3617Z" fill="#B57402"/>
<path d="M19.6588 4.74619C19.5256 4.69356 19.3793 4.68442 19.2409 4.72342C10.8565 7.06738 5 14.7887 5 23.5C5 34.2523 13.7477 43 24.5 43C27.7071 43 30.8895 42.2025 33.7033 40.6931C33.8742 40.6015 33.9951 40.4377 34.0335 40.2479L34.2422 39.2021L34.2558 39.1169C34.5724 37.1279 34.9 35.072 34.9 32.925C34.9 19.7391 28.7751 8.41478 19.6588 4.74619ZM32.9721 38.9122L32.8194 39.6896C30.261 41.0058 27.3913 41.7001 24.5001 41.7001C14.4647 41.7 6.30003 33.5353 6.30003 23.5C6.30003 15.4432 11.6664 8.2939 19.3781 6.03578C27.8937 9.59651 33.6 20.3644 33.6 32.925C33.6 34.9693 33.2809 36.9739 32.9721 38.9122Z" fill="#B57402"/>
<path d="M20.1593 37.8351C18.9367 37.4178 17.7088 36.8036 16.4043 35.9553C16.1027 35.7596 15.7003 35.8448 15.5047 36.1458C15.3091 36.4467 15.3941 36.8491 15.6951 37.0447C17.0913 37.9522 18.4141 38.6132 19.7401 39.065C19.8096 39.0884 19.8804 39.1001 19.95 39.1001C20.2204 39.1001 20.4732 38.9298 20.5649 38.6607C20.6806 38.3207 20.4993 37.9508 20.1593 37.8351Z" fill="#B57402"/>
<path d="M13.307 33.4931C13.1549 33.304 12.9885 33.1051 12.8162 32.9004C12.3105 32.2979 11.7366 31.6154 11.4304 31.0069C11.2686 30.6864 10.878 30.5564 10.5575 30.719C10.237 30.8808 10.1077 31.2714 10.2696 31.5919C10.644 32.3355 11.2692 33.0798 11.8211 33.7369C11.9869 33.9339 12.1474 34.1249 12.293 34.3063C12.4217 34.4668 12.6102 34.55 12.8007 34.55C12.943 34.55 13.0867 34.5033 13.2069 34.407C13.4871 34.1821 13.5319 33.7732 13.307 33.4931Z" fill="#B57402"/>
<path d="M42.7 17.9191C23.6712 17.7677 12.4483 24.1455 6.38121 29.545C6.11339 29.7836 6.08939 30.1944 6.32789 30.4628C6.45593 30.6071 6.63471 30.6806 6.81341 30.6806C6.96682 30.6806 7.12152 30.626 7.245 30.5161C13.1412 25.2686 24.0852 19.065 42.6875 19.2191C42.6901 19.2191 42.6921 19.2191 42.694 19.2191C43.0502 19.2191 43.3408 18.9318 43.344 18.575C43.3474 18.2162 43.0588 17.9224 42.7 17.9191Z" fill="#B57402"/>
<path d="M10.9157 10.5C10.7174 10.5 10.5205 10.4915 10.3235 10.4818C9.96277 10.4753 9.66052 10.7417 9.64361 11.1006C9.62609 11.4588 9.90298 11.7636 10.2617 11.7805C10.4788 11.7909 10.6966 11.8 10.9157 11.8C19.5178 11.8 26.5157 20.1103 26.5157 30.325C26.5157 34.8737 25.4113 38.8998 23.3222 41.9678C23.1201 42.2649 23.1968 42.6691 23.4939 42.8713C23.6057 42.9473 23.733 42.9837 23.8592 42.9837C24.0672 42.9837 24.2713 42.8842 24.3974 42.6997C26.6334 39.4146 27.8158 35.1356 27.8158 30.3249C27.8157 19.3933 20.2341 10.5 10.9157 10.5Z" fill="#B57402"/>
<path d="M58.5357 38.4643H56.0714V36.8214C56.0714 36.3678 55.7037 36 55.25 36C54.7963 36 54.4285 36.3678 54.4285 36.8214V38.4643H44.5714V36.8214C44.5714 36.3678 44.2036 36 43.75 36C43.2964 36 42.9286 36.3678 42.9286 36.8214V38.4643H40.4643C39.1033 38.4643 38 39.5676 38 40.9286V56.5357C38 57.8967 39.1033 59 40.4643 59H58.5357C59.8967 59 61 57.8967 61 56.5357V40.9286C61 39.5676 59.8967 38.4643 58.5357 38.4643ZM59.3571 56.5357C59.3571 56.9894 58.9893 57.3572 58.5357 57.3572H40.4643C40.0106 57.3572 39.6428 56.9894 39.6428 56.5357V45.8571H59.3571V56.5357ZM59.3571 44.2143H39.6428V40.9286C39.6428 40.4749 40.0106 40.1071 40.4643 40.1071H42.9286V41.75C42.9286 42.2036 43.2963 42.5714 43.75 42.5714C44.2037 42.5714 44.5715 42.2036 44.5715 41.75V40.1071H54.4286V41.75C54.4286 42.2036 54.7964 42.5714 55.25 42.5714C55.7037 42.5714 56.0715 42.2036 56.0715 41.75V40.1071H58.5358C58.9894 40.1071 59.3572 40.4749 59.3572 40.9286V44.2143H59.3571Z" fill="#B57402"/>
<path d="M54.9891 47.7407C54.6708 47.4332 54.1661 47.4332 53.8478 47.7407L47.8571 53.7313L45.1521 51.0264C44.8258 50.7112 44.3058 50.7203 43.9906 51.0465C43.6832 51.3649 43.6832 51.8695 43.9906 52.1878L47.2764 55.4736C47.5972 55.7942 48.1171 55.7942 48.4379 55.4736L55.0093 48.9022C55.3244 48.5759 55.3154 48.0559 54.9891 47.7407Z" fill="#B57402"/>
</svg>
