<svg width="104" height="105" viewBox="0 0 104 105" fill="none" xmlns="http://www.w3.org/2000/svg">
<path d="M85.416 35.336C85.416 33.672 85.784 32.296 86.52 31.208C87.288 30.12 88.392 28.92 89.832 27.608C90.888 26.648 91.656 25.848 92.136 25.208C92.648 24.536 92.904 23.784 92.904 22.952C92.904 21.768 92.424 20.84 91.464 20.168C90.536 19.464 89.288 19.112 87.72 19.112C86.216 19.112 84.872 19.432 83.688 20.072C82.536 20.68 81.56 21.544 80.76 22.664L74.952 19.256C76.296 17.208 78.104 15.624 80.376 14.504C82.68 13.384 85.4 12.824 88.536 12.824C92.216 12.824 95.16 13.608 97.368 15.176C99.608 16.744 100.728 18.92 100.728 21.704C100.728 23.016 100.504 24.168 100.056 25.16C99.64 26.152 99.112 27 98.472 27.704C97.864 28.376 97.064 29.16 96.072 30.056C94.888 31.112 94.024 32.008 93.48 32.744C92.936 33.448 92.664 34.312 92.664 35.336H85.416ZM89.064 47.384C87.752 47.384 86.648 46.968 85.752 46.136C84.888 45.272 84.456 44.232 84.456 43.016C84.456 41.8 84.888 40.792 85.752 39.992C86.616 39.16 87.72 38.744 89.064 38.744C90.408 38.744 91.512 39.16 92.376 39.992C93.24 40.792 93.672 41.8 93.672 43.016C93.672 44.232 93.224 45.272 92.328 46.136C91.464 46.968 90.376 47.384 89.064 47.384Z" fill="#915F06"/>
<path d="M66.9643 38.0357H58.9286V32.6786C58.9286 31.1992 57.7293 30 56.25 30C54.7706 30 53.5713 31.1992 53.5713 32.6786V38.0357H21.4285V32.6786C21.4285 31.1992 20.2293 30 18.75 30C17.2708 30 16.0714 31.1992 16.0714 32.6786V38.0357H8.03571C3.59771 38.0357 0 41.6334 0 46.0714V96.9643C0 101.402 3.59771 105 8.03571 105H66.9643C71.4023 105 75 101.402 75 96.9643V46.0714C75 41.6334 71.4023 38.0357 66.9643 38.0357ZM69.6428 96.9643C69.6428 98.4437 68.4435 99.6429 66.9641 99.6429H8.03571C6.55632 99.6429 5.35709 98.4437 5.35709 96.9643V62.1428H69.6428V96.9643ZM69.6428 56.7857H5.35709V46.0714C5.35709 44.592 6.55632 43.3928 8.03571 43.3928H16.0714V48.7499C16.0714 50.2293 17.2707 51.4285 18.75 51.4285C20.2294 51.4285 21.4287 50.2293 21.4287 48.7499V43.3928H53.5715V48.7499C53.5715 50.2293 54.7707 51.4285 56.2501 51.4285C57.7295 51.4285 58.9287 50.2293 58.9287 48.7499V43.3928H66.9644C68.4438 43.3928 69.6431 44.592 69.6431 46.0714V56.7857H69.6428Z" fill="#B57402"/>
<path d="M55.3993 68.2849C54.3612 67.2823 52.7156 67.2823 51.6777 68.2849L32.1428 87.8196L23.3221 78.999C22.258 77.9713 20.5624 78.0008 19.5347 79.0648C18.5321 80.1028 18.5321 81.7484 19.5347 82.7864L30.249 93.5007C31.2951 94.5463 32.9906 94.5463 34.0365 93.5007L55.465 72.0723C56.4927 71.0082 56.4632 69.3125 55.3993 68.2849Z" fill="#B57402"/>
</svg>
