<?xml version="1.0" encoding="iso-8859-1"?>
<!-- Generator: Adobe Illustrator 19.0.0, SVG Export Plug-In . SVG Version: 6.00 Build 0)  -->
<svg version="1.1" id="Capa_1" xmlns="http://www.w3.org/2000/svg" xmlns:xlink="http://www.w3.org/1999/xlink" x="0px" y="0px"
	 viewBox="0 0 512 512" style="enable-background:new 0 0 512 512;" xml:space="preserve">
<path style="fill:#78B9EB;" d="M401.257,110.967c-11.69-0.034-23.294,1.963-34.301,5.888c0.085-1.963,0.171-3.925,0.171-5.888
	c0-56.546-45.846-102.391-102.391-102.391S162.343,54.421,162.343,110.967c-0.017,4.454,0.265,8.9,0.853,13.311
	c-8.447-3.208-17.415-4.821-26.451-4.778c-36.52,0-67.996,25.726-75.258,61.52c-36.707,8.584-59.515,45.3-50.931,82.007
	c7.219,30.88,34.753,52.723,66.461,52.723h324.24c2.901,0,5.717-0.085,8.533-0.341c56.358-4.616,98.313-54.037,93.697-110.404
	C499.134,151.804,454.637,110.873,401.257,110.967z"/>
<g>
	<path style="fill:#006DF0;" d="M213.539,477.87c0-14.139-25.598-59.728-25.598-59.728s-25.598,45.59-25.598,59.728
		c0,14.139,11.459,25.598,25.598,25.598S213.539,492.008,213.539,477.87L213.539,477.87z"/>
	<path style="fill:#006DF0;" d="M350.061,477.87c0-14.139-25.598-59.728-25.598-59.728s-25.598,45.59-25.598,59.728
		c0,14.139,11.459,25.598,25.598,25.598C338.602,503.467,350.061,492.008,350.061,477.87L350.061,477.87z"/>
	<path style="fill:#006DF0;" d="M281.8,409.609c0-14.139-25.598-59.728-25.598-59.728s-25.598,45.59-25.598,59.728
		c0,14.139,11.459,25.598,25.598,25.598C270.332,435.206,281.8,423.747,281.8,409.609z"/>
	<path style="fill:#006DF0;" d="M145.278,409.609c0-14.139-25.598-59.728-25.598-59.728s-25.598,45.59-25.598,59.728
		c0,14.139,11.459,25.598,25.598,25.598C133.819,435.206,145.278,423.747,145.278,409.609z"/>
	<path style="fill:#006DF0;" d="M418.322,409.609c0-14.139-25.598-59.728-25.598-59.728s-25.598,45.59-25.598,59.728
		c0,14.139,11.459,25.598,25.598,25.598C406.862,435.206,418.322,423.747,418.322,409.609z"/>
</g>
<g>
	<path style="fill:#231F20;" d="M401.257,324.282H77.017c-42.416,0.009-76.802-34.361-76.819-76.768
		c-0.009-33.704,21.954-63.466,54.157-73.406c10.103-37.202,43.841-63.056,82.391-63.141c5.734-0.009,11.451,0.563,17.065,1.707
		c0-0.563,0-1.135,0-1.707C153.785,49.711,203.428,0.026,264.683,0c59.14-0.026,107.904,46.358,110.83,105.421
		c59.643-13.993,119.337,23.004,133.331,82.647s-23.004,119.337-82.647,133.331c-5.162,1.212-10.41,2.056-15.7,2.517
		C407.494,324.188,404.422,324.282,401.257,324.282z M136.745,128.032c-32.441,0.06-60.377,22.893-66.887,54.677
		c-0.666,3.277-3.183,5.87-6.442,6.621c-32.125,7.517-52.075,39.643-44.557,71.768c6.323,27.014,30.41,46.119,58.158,46.127h324.24
		c2.637,0,5.196-0.068,7.756-0.307c51.665-4.19,90.156-49.472,85.966-101.137c-3.959-48.798-44.762-86.359-93.722-86.273
		c-10.708-0.034-21.332,1.783-31.417,5.384c-4.437,1.596-9.318-0.708-10.913-5.145c-0.375-1.041-0.546-2.15-0.495-3.259
		c0.085-1.843,0.162-3.678,0.162-5.512c0-51.836-42.023-93.859-93.859-93.859s-93.859,42.023-93.859,93.859
		c-0.017,4.062,0.239,8.123,0.776,12.15c0.64,4.667-2.62,8.976-7.295,9.616c-1.433,0.196-2.893,0.026-4.232-0.495
		C152.65,129.406,144.732,127.981,136.745,128.032z"/>
	<path style="fill:#231F20;" d="M187.941,512c-18.849,0-34.13-15.282-34.13-34.13c0-15.581,22.227-55.965,26.69-63.909
		c2.679-4.113,8.183-5.265,12.296-2.585c1.032,0.674,1.911,1.553,2.585,2.585c4.505,7.944,26.69,48.329,26.69,63.909
		C222.071,496.718,206.79,512,187.941,512z M187.941,436.162c-7.594,13.046-13.345,27.083-17.065,41.707
		c0,9.429,7.637,17.065,17.065,17.065s17.065-7.637,17.065-17.065C201.277,463.245,195.535,449.208,187.941,436.162z"/>
	<path style="fill:#231F20;" d="M324.463,512c-18.849,0-34.13-15.282-34.13-34.13c0-15.581,22.185-55.965,26.69-63.909
		c2.679-4.113,8.183-5.265,12.296-2.585c1.032,0.674,1.911,1.553,2.585,2.585c4.505,7.944,26.69,48.329,26.69,63.909
		C358.593,496.718,343.311,512,324.463,512z M324.463,436.162c-7.594,13.046-13.345,27.083-17.065,41.707
		c0,9.429,7.637,17.065,17.065,17.065c9.429,0,17.065-7.637,17.065-17.065C337.799,463.245,332.057,449.208,324.463,436.162z"/>
	<path style="fill:#231F20;" d="M256.202,443.739c-18.849,0-34.13-15.282-34.13-34.13c0-15.581,22.227-55.965,26.69-63.909
		c2.679-4.113,8.183-5.265,12.296-2.585c1.032,0.674,1.911,1.553,2.585,2.585c4.505,7.944,26.69,48.329,26.69,63.909
		C290.332,428.457,275.051,443.739,256.202,443.739z M256.202,367.901c-7.594,13.046-13.345,27.083-17.065,41.707
		c0,9.429,7.637,17.065,17.065,17.065c9.429,0,17.065-7.637,17.065-17.065C269.538,394.984,263.796,380.947,256.202,367.901z"/>
	<path style="fill:#231F20;" d="M119.68,443.739c-18.849,0-34.13-15.282-34.13-34.13c0-15.581,22.227-55.965,26.69-63.909
		c2.679-4.113,8.183-5.265,12.296-2.585c1.032,0.674,1.911,1.553,2.585,2.585c4.505,7.944,26.69,48.329,26.69,63.909
		C153.81,428.457,138.529,443.739,119.68,443.739z M119.68,367.901c-7.594,13.046-13.345,27.083-17.065,41.707
		c0,9.429,7.637,17.065,17.065,17.065s17.065-7.637,17.065-17.065C133.016,394.984,127.274,380.947,119.68,367.901z"/>
	<path style="fill:#231F20;" d="M392.724,443.739c-18.849,0-34.13-15.282-34.13-34.13c0-15.581,22.185-55.965,26.69-63.909
		c2.679-4.113,8.183-5.265,12.296-2.585c1.032,0.674,1.911,1.553,2.585,2.585c4.505,7.944,26.69,48.329,26.69,63.909
		C426.854,428.457,411.572,443.739,392.724,443.739z M392.724,367.901c-7.594,13.046-13.345,27.083-17.065,41.707
		c0,9.429,7.637,17.065,17.065,17.065c9.429,0,17.065-7.637,17.065-17.065C406.06,394.984,400.318,380.947,392.724,367.901z"/>
</g>
<g>
</g>
<g>
</g>
<g>
</g>
<g>
</g>
<g>
</g>
<g>
</g>
<g>
</g>
<g>
</g>
<g>
</g>
<g>
</g>
<g>
</g>
<g>
</g>
<g>
</g>
<g>
</g>
<g>
</g>
</svg>
