<?xml version="1.0" encoding="iso-8859-1"?>
<!-- Generator: Adobe Illustrator 19.0.0, SVG Export Plug-In . SVG Version: 6.00 Build 0)  -->
<svg version="1.1" id="Capa_1" xmlns="http://www.w3.org/2000/svg" xmlns:xlink="http://www.w3.org/1999/xlink" x="0px" y="0px"
	 viewBox="0 0 477.867 477.867" style="enable-background:new 0 0 477.867 477.867;" xml:space="preserve">
<g>
	<g>
		<path d="M443.733,68.267H324.267V51.2c0-28.277-22.923-51.2-51.2-51.2H204.8c-28.277,0-51.2,22.923-51.2,51.2v17.067H34.133
			c-9.426,0-17.067,7.641-17.067,17.067S24.708,102.4,34.133,102.4h18.551l32.649,359.953c0.805,8.814,8.216,15.55,17.067,15.514
			h273.067c8.851,0.037,16.261-6.699,17.067-15.514L425.182,102.4h18.552c9.426,0,17.067-7.641,17.067-17.067
			S453.159,68.267,443.733,68.267z M187.733,51.2c0-9.426,7.641-17.067,17.067-17.067h68.267c9.426,0,17.067,7.641,17.067,17.067
			v17.067h-102.4V51.2z M359.885,443.733H117.982L87.04,102.4h83.627h220.245L359.885,443.733z"/>
	</g>
</g>
<g>
	<g>
		<path d="M187.738,391.392c-0.002-0.023-0.003-0.047-0.005-0.07l-17.067-238.933c-0.669-9.426-8.853-16.524-18.278-15.855
			c-9.426,0.669-16.524,8.853-15.855,18.278L153.6,393.745c0.637,8.949,8.095,15.878,17.067,15.855h1.229
			C181.299,408.947,188.392,400.795,187.738,391.392z"/>
	</g>
</g>
<g>
	<g>
		<path d="M238.933,136.533c-9.426,0-17.067,7.641-17.067,17.067v238.933c0,9.426,7.641,17.067,17.067,17.067
			S256,401.959,256,392.533V153.6C256,144.174,248.359,136.533,238.933,136.533z"/>
	</g>
</g>
<g>
	<g>
		<path d="M325.478,136.533c-9.426-0.669-17.609,6.429-18.278,15.855l-17.067,238.933c-0.691,9.4,6.369,17.581,15.769,18.272
			c0.029,0.002,0.057,0.004,0.086,0.006h1.212c8.972,0.023,16.43-6.906,17.067-15.855l17.067-238.933
			C342.003,145.386,334.904,137.203,325.478,136.533z"/>
	</g>
</g>
<g>
</g>
<g>
</g>
<g>
</g>
<g>
</g>
<g>
</g>
<g>
</g>
<g>
</g>
<g>
</g>
<g>
</g>
<g>
</g>
<g>
</g>
<g>
</g>
<g>
</g>
<g>
</g>
<g>
</g>
</svg>
